<?xml version="1.0" encoding="UTF-8" standalone="no"?>
<svg
   xmlns:dc="http://purl.org/dc/elements/1.1/"
   xmlns:cc="http://creativecommons.org/ns#"
   xmlns:rdf="http://www.w3.org/1999/02/22-rdf-syntax-ns#"
   xmlns:svg="http://www.w3.org/2000/svg"
   xmlns="http://www.w3.org/2000/svg"
   xmlns:sodipodi="http://sodipodi.sourceforge.net/DTD/sodipodi-0.dtd"
   xmlns:inkscape="http://www.inkscape.org/namespaces/inkscape"
   version="1.0"
   width="24"
   height="17"
   viewBox="0 0 17.999999 12.749999"
   preserveAspectRatio="xMidYMid meet"
   id="svg95"
   sodipodi:docname="logo.svg"
   inkscape:version="1.0.2-2 (e86c870879, 2021-01-15)"
   inkscape:export-filename="C:\Users\mmehd\OneDrive\Desktop\bitmap.png"
   inkscape:export-xdpi="603.71753"
   inkscape:export-ydpi="603.71753">
  <metadata
     id="metadata101">
    <rdf:RDF>
      <cc:Work
         rdf:about="">
        <dc:format>image/svg+xml</dc:format>
        <dc:type
           rdf:resource="http://purl.org/dc/dcmitype/StillImage" />
        <dc:title></dc:title>
      </cc:Work>
    </rdf:RDF>
  </metadata>
  <defs
     id="defs99">
    <style
       type="text/css"
       id="style53"><![CDATA[
    .fil0 {fill:black}
    .fil1 {fill:white}
   ]]></style>
  </defs>
  <sodipodi:namedview
     pagecolor="#ffffff"
     bordercolor="#666666"
     borderopacity="1"
     objecttolerance="10"
     gridtolerance="10"
     guidetolerance="10"
     inkscape:pageopacity="0"
     inkscape:pageshadow="2"
     inkscape:window-width="1920"
     inkscape:window-height="1001"
     id="namedview97"
     showgrid="false"
     inkscape:zoom="29.042406"
     inkscape:cx="9.7547989"
     inkscape:cy="11.259266"
     inkscape:window-x="-9"
     inkscape:window-y="-9"
     inkscape:window-maximized="1"
     inkscape:current-layer="g125"
     inkscape:document-rotation="0"
     units="px" />
  <style
     type="text/css"
     id="style120">.st0{fill-rule:evenodd;clip-rule:evenodd;fill:#00D8FF;}</style>
  <g
     id="g125"
     transform="matrix(0.03449214,0,0,0.03449214,1.1615267,1.9315973)">
    <g
       id="g916"
       transform="translate(0,-10.872042)"
       style="fill:#000000"
       inkscape:export-filename="C:\Users\mmehd\OneDrive\Desktop\g916.png"
       inkscape:export-xdpi="603.71753"
       inkscape:export-ydpi="603.71753">
      <text
         xml:space="preserve"
         style="font-style:normal;font-weight:normal;font-size:260.929px;line-height:3.15;font-family:sans-serif;text-align:center;text-anchor:middle;fill:#000000;fill-opacity:1;stroke:none;stroke-width:1.23846;stroke-miterlimit:4;stroke-dasharray:none"
         x="230.6458"
         y="248.80746"
         id="text38"
         inkscape:export-filename="C:\Users\mmehd\OneDrive\Desktop\text38.png"
         inkscape:export-xdpi="603.71997"
         inkscape:export-ydpi="603.71997"><tspan
           sodipodi:role="line"
           id="tspan36"
           x="230.6458"
           y="248.80746"
           style="font-style:normal;font-variant:normal;font-weight:500;font-stretch:normal;font-size:260.929px;font-family:Palanquin;-inkscape-font-specification:'Palanquin Medium';text-align:center;text-anchor:middle;fill:#000000;stroke-width:1.23846;stroke-miterlimit:4;stroke-dasharray:none"
           rotate="0 0 0">31</tspan></text>
      <g
         id="Layer_44"
         data-name="Layer 44"
         transform="matrix(6.4128278,0,0,6.4128278,22.043393,-74.406113)"
         style="fill:#000000"
         inkscape:export-filename="C:\Users\mmehd\OneDrive\Desktop\text38.png"
         inkscape:export-xdpi="603.71997"
         inkscape:export-ydpi="603.71997">
        <path
           d="M 58.058841,8.7880317 H 53.195119 V 6.8935443 c 0,-1.4873762 -2.231065,-1.4873762 -2.231065,0 V 8.7880317 H 39.808728 V 6.8935443 c 0,-1.4873762 -2.231065,-1.4873762 -2.231065,0 V 8.7880317 H 26.422337 V 6.8935443 c 0,-1.4873762 -2.231065,-1.4873762 -2.231065,0 V 8.7880317 H 13.035946 V 6.8935443 c 0,-1.4873762 -2.231065,-1.4873762 -2.231065,0 V 8.7880317 H 5.9411594 c -3.4549021,0.00602 -6.2610344,2.7922103 -6.29160367,6.2469823 v 39.668338 c 0.006135,3.47221 2.81939347,6.285464 6.29160367,6.291604 H 58.058841 c 3.47221,-0.0061 6.285463,-2.819394 6.291603,-6.291604 V 15.035014 C 64.319879,11.580242 61.513743,8.7940109 58.058841,8.7880317 Z M 5.9411594,11.019097 h 4.8637216 v 1.894489 c 0,1.487376 2.231065,1.487376 2.231065,0 v -1.894489 h 11.155326 v 1.894489 c 0,1.487376 2.231065,1.487376 2.231065,0 v -1.894489 h 11.155326 v 1.894489 c 0,1.487376 2.231065,1.487376 2.231065,0 v -1.894489 h 11.155326 v 1.894489 c 0,1.487376 2.231065,1.487376 2.231065,0 v -1.894489 h 4.863722 c 2.225263,-1.34e-4 4.036085,1.790789 4.060538,4.015917 V 18.25664 H 1.8806208 v -3.221626 c 0.024454,-2.225128 1.8352758,-4.016051 4.0605386,-4.015917 z M 58.058841,58.76389 H 5.9411594 c -2.2425735,0 -4.0605386,-1.817965 -4.0605386,-4.060538 V 20.487705 H 62.119379 v 34.215647 c 0,2.242573 -1.817965,4.060538 -4.060538,4.060538 z"
           id="path40"
           sodipodi:nodetypes="ccssccssccssccsscccccccccccssccssccssccsscccccccsssccss"
           style="fill:#000000;stroke-width:1.11553" />
        <g
           style="clip-rule:evenodd;fill:#000000;fill-rule:evenodd;image-rendering:optimizeQuality;shape-rendering:geometricPrecision;text-rendering:geometricPrecision"
           id="g84"
           transform="matrix(171.5528,0,0,171.5528,-665.76732,-767.9476)">
          <g
             id="Layer_x0020_1"
             transform="translate(4.9783906,-0.64871035)"
             style="fill:#000000">
            <metadata
               id="CorelCorpID_0Corel-Layer" />
          </g>
        </g>
      </g>
      <rect
         style="opacity:0.999;fill:#000000;stroke-width:0.386201;stroke-miterlimit:4;stroke-dasharray:none"
         id="rect906"
         width="394.56552"
         height="61.55201"
         x="31.461882"
         y="-10.488824"
         rx="27.888138"
         ry="17.015579" />
    </g>
  </g>
</svg>
