<?xml version="1.0" encoding="UTF-8" standalone="no"?>
<svg
   xmlns:dc="http://purl.org/dc/elements/1.1/"
   xmlns:cc="http://creativecommons.org/ns#"
   xmlns:rdf="http://www.w3.org/1999/02/22-rdf-syntax-ns#"
   xmlns:svg="http://www.w3.org/2000/svg"
   xmlns="http://www.w3.org/2000/svg"
   xmlns:sodipodi="http://sodipodi.sourceforge.net/DTD/sodipodi-0.dtd"
   xmlns:inkscape="http://www.inkscape.org/namespaces/inkscape"
   version="1.0"
   width="24"
   height="24"
   viewBox="0 0 17.999999 17.999999"
   preserveAspectRatio="xMidYMid meet"
   id="svg95"
   sodipodi:docname="logo-w.svg"
   inkscape:version="1.0.2-2 (e86c870879, 2021-01-15)">
  <metadata
     id="metadata101">
    <rdf:RDF>
      <cc:Work
         rdf:about="">
        <dc:format>image/svg+xml</dc:format>
        <dc:type
           rdf:resource="http://purl.org/dc/dcmitype/StillImage" />
        <dc:title></dc:title>
      </cc:Work>
    </rdf:RDF>
  </metadata>
  <defs
     id="defs99">
    <style
       type="text/css"
       id="style53"><![CDATA[
    .fil0 {fill:black}
    .fil1 {fill:white}
   ]]></style>
  </defs>
  <sodipodi:namedview
     pagecolor="#ffffff"
     bordercolor="#666666"
     borderopacity="1"
     objecttolerance="10"
     gridtolerance="10"
     guidetolerance="10"
     inkscape:pageopacity="0"
     inkscape:pageshadow="2"
     inkscape:window-width="1920"
     inkscape:window-height="1001"
     id="namedview97"
     showgrid="false"
     inkscape:zoom="29.042406"
     inkscape:cx="9.7547989"
     inkscape:cy="12.636562"
     inkscape:window-x="-9"
     inkscape:window-y="-9"
     inkscape:window-maximized="1"
     inkscape:current-layer="g111"
     inkscape:document-rotation="0"
     units="px" />
  <style
     type="text/css"
     id="style120">.st0{fill-rule:evenodd;clip-rule:evenodd;fill:#00D8FF;}</style>
  <g
     id="g125"
     transform="matrix(0.03449214,0,0,0.03449214,1.1615267,1.9315973)">
    <g
       id="g111">
      <text
         xml:space="preserve"
         style="font-style:normal;font-weight:normal;font-size:64px;line-height:1.65;font-family:sans-serif;fill:#ffffff;fill-opacity:1;stroke:none;stroke-width:0.75;"
         x="138.26413"
         y="334.168"
         id="text161"><tspan
           sodipodi:role="line"
           id="tspan159"
           x="138.26413"
           y="334.168"
           style="font-style:normal;font-variant:normal;font-weight:normal;font-stretch:normal;font-size:64px;font-family:Palanquin;-inkscape-font-specification:Palanquin;fill:#ffffff;stroke-width:0.75;"><tspan
   style="font-style:normal;font-variant:normal;font-weight:200;font-stretch:normal;font-family:Palanquin;-inkscape-font-specification:'Palanquin Ultra-Light';fill:#ffffff;"
   id="tspan97">M  rch</tspan> </tspan></text>
      <text
         xml:space="preserve"
         style="font-style:normal;font-weight:normal;font-size:200px;line-height:3.15;font-family:sans-serif;fill:#ffffff;fill-opacity:1;stroke:none;stroke-width:0.73964129;text-anchor:middle;text-align:center;stroke-miterlimit:4;stroke-dasharray:none;opacity:0.999;"
         x="217.99998"
         y="265.92593"
         id="text38"><tspan
           sodipodi:role="line"
           id="tspan36"
           x="138.90018"
           y="265.92593"
           style="font-style:normal;font-variant:normal;font-weight:200;font-stretch:normal;font-size:200px;font-family:Palanquin;-inkscape-font-specification:'Palanquin Ultra-Light';fill:#ffffff;stroke-width:0.73964129;text-anchor:middle;text-align:center;stroke-miterlimit:4;stroke-dasharray:none;"
           rotate="0 0 0">31</tspan></text>
      <g
         id="Layer_44"
         data-name="Layer 44"
         transform="matrix(6.4128278,0,0,6.4128278,22.043397,-9.1738621)"
         style="fill:#ffffff">
        <path
           d="M 58.058841,8.7880317 H 53.195119 V 6.8935443 c 0,-1.4873762 -2.231065,-1.4873762 -2.231065,0 V 8.7880317 H 39.808728 V 6.8935443 c 0,-1.4873762 -2.231065,-1.4873762 -2.231065,0 V 8.7880317 H 26.422337 V 6.8935443 c 0,-1.4873762 -2.231065,-1.4873762 -2.231065,0 V 8.7880317 H 13.035946 V 6.8935443 c 0,-1.4873762 -2.231065,-1.4873762 -2.231065,0 V 8.7880317 H 5.9411594 c -3.4549021,0.00602 -6.2610344,2.7922103 -6.29160367,6.2469823 v 39.668338 c 0.006135,3.47221 2.81939347,6.285464 6.29160367,6.291604 H 58.058841 c 3.47221,-0.0061 6.285463,-2.819394 6.291603,-6.291604 V 15.035014 C 64.319879,11.580242 61.513743,8.7940109 58.058841,8.7880317 Z M 5.9411594,11.019097 h 4.8637216 v 1.894489 c 0,1.487376 2.231065,1.487376 2.231065,0 v -1.894489 h 11.155326 v 1.894489 c 0,1.487376 2.231065,1.487376 2.231065,0 v -1.894489 h 11.155326 v 1.894489 c 0,1.487376 2.231065,1.487376 2.231065,0 v -1.894489 h 11.155326 v 1.894489 c 0,1.487376 2.231065,1.487376 2.231065,0 v -1.894489 h 4.863722 c 2.225263,-1.34e-4 4.036085,1.790789 4.060538,4.015917 V 18.25664 H 1.8806208 v -3.221626 c 0.024454,-2.225128 1.8352758,-4.016051 4.0605386,-4.015917 z M 58.058841,58.76389 H 5.9411594 c -2.2425735,0 -4.0605386,-1.817965 -4.0605386,-4.060538 V 20.487705 H 62.119379 v 34.215647 c 0,2.242573 -1.817965,4.060538 -4.060538,4.060538 z"
           id="path40"
           sodipodi:nodetypes="ccssccssccssccsscccccccccccssccssccssccsscccccccsssccss"
           style="fill:#ffffff;stroke-width:1.11553" />
        <g
           style="clip-rule:evenodd;fill:#ffffff;fill-rule:evenodd;image-rendering:optimizeQuality;shape-rendering:geometricPrecision;text-rendering:geometricPrecision"
           id="g84"
           transform="matrix(171.5528,0,0,171.5528,-665.76732,-767.9476)">
          <g
             id="Layer_x0020_1"
             transform="translate(4.9783906,-0.64871035)"
             style="fill:#ffffff">
            <metadata
               id="CorelCorpID_0Corel-Layer" />
          </g>
        </g>
      </g>
    </g>
    <path
       class="st0"
       d="m 217.84446,318.87911 c 0,-2.39898 -3.00314,-4.67122 -7.60952,-6.0829 1.06392,-4.6948 0.58943,-8.42882 -1.49124,-9.62537 -0.48038,-0.27997 -1.04034,-0.41261 -1.65335,-0.41261 v 1.64746 c 0.33892,0 0.61301,0.0678 0.84288,0.19156 1.00498,0.5747 1.43821,2.76738 1.09928,5.58779 -0.0825,0.69257 -0.21514,1.42347 -0.37723,2.1691 -1.44704,-0.35366 -3.02672,-0.62775 -4.68596,-0.80457 -0.99613,-1.36453 -2.03058,-2.60528 -3.07093,-3.68982 2.40488,-2.23984 4.66239,-3.4629 6.19785,-3.4629 v -1.64745 0 c -2.03058,0 -4.68595,1.44705 -7.37375,3.95801 -2.6878,-2.49623 -5.34317,-3.92854 -7.37375,-3.92854 v 1.64746 c 1.52662,0 3.79298,1.21716 6.20079,3.43931 -1.03445,1.08455 -2.06595,2.31645 -3.04735,3.68393 -1.66807,0.17682 -3.24775,0.45091 -4.6948,0.81046 -0.17093,-0.73679 -0.29471,-1.45294 -0.38312,-2.13962 -0.34777,-2.82042 0.0825,-5.01309 1.07866,-5.59663 0.22102,-0.13262 0.50985,-0.19156 0.84877,-0.19156 v -1.64451 0 c -0.61891,0 -1.1818,0.13262 -1.66809,0.4126 -2.07479,1.19654 -2.54043,4.92467 -1.46767,9.60474 -4.59755,1.41463 -7.58594,3.68097 -7.58594,6.07406 0,2.39897 3.00313,4.67122 7.60951,6.0829 -1.06391,4.69479 -0.58942,8.42883 1.49126,9.62538 0.48038,0.27997 1.04033,0.41259 1.66219,0.41259 2.03058,0 4.68595,-1.44705 7.37375,-3.95801 2.68779,2.49622 5.34317,3.92854 7.37375,3.92854 0.61891,0 1.1818,-0.13262 1.66808,-0.4126 2.07478,-1.19654 2.54043,-4.92468 1.46767,-9.60474 4.57986,-1.40873 7.56826,-3.68393 7.56826,-6.07406 z m -14.7416,0 c 0,-1.86259 -1.50893,-3.37448 -3.37447,-3.37448 -1.8626,0 -3.37449,1.50895 -3.37449,3.37448 0,1.86554 1.50895,3.37448 3.37449,3.37448 1.86554,-0.003 3.37447,-1.51188 3.37447,-3.37448 z m -10.76297,-16.10024 z m 15.89395,11.17556 c -0.27408,0.95193 -0.61301,1.93334 -0.99613,2.91473 -0.30356,-0.58942 -0.6189,-1.18181 -0.96666,-1.77123 -0.33893,-0.58943 -0.70142,-1.16707 -1.06392,-1.72703 1.04917,0.1562 2.06004,0.34777 3.02671,0.58353 z m -3.38037,7.86298 c -0.5747,0.99614 -1.16707,1.94217 -1.78008,2.82042 -1.09928,0.0972 -2.2133,0.14736 -3.33616,0.14736 -1.11403,0 -2.22805,-0.053 -3.32143,-0.14147 -0.613,-0.87825 -1.21127,-1.81544 -1.78597,-2.80567 -0.55995,-0.96667 -1.06981,-1.94807 -1.53546,-2.93831 0.4568,-0.99024 0.97551,-1.97753 1.52662,-2.9442 0.57469,-0.99613 1.16707,-1.94216 1.78007,-2.82041 1.09928,-0.0973 2.21331,-0.14736 3.33617,-0.14736 1.11402,0 2.22803,0.053 3.32143,0.14146 0.613,0.87825 1.21127,1.81544 1.78597,2.80568 0.55995,0.96667 1.06981,1.94806 1.53546,2.93831 -0.46565,0.98728 -0.97256,1.97458 -1.52662,2.94419 z m 2.38424,-0.96077 c 0.39786,0.99024 0.73678,1.97754 1.0197,2.93831 -0.96666,0.23576 -1.98636,0.43618 -3.04144,0.58942 0.3625,-0.5688 0.72205,-1.15233 1.06392,-1.75059 0.33597,-0.58944 0.65426,-1.18771 0.95782,-1.77714 z m -7.48575,7.87477 c -0.68668,-0.70731 -1.37337,-1.49715 -2.05121,-2.36066 0.66311,0.0295 1.3439,0.053 2.03058,0.053 0.69258,0 1.37926,-0.0147 2.05121,-0.053 -0.66605,0.86351 -1.35273,1.65335 -2.03058,2.36066 z m -5.49052,-4.34704 c -1.04918,-0.1562 -2.06005,-0.34776 -3.02672,-0.58353 0.27408,-0.95193 0.613,-1.93333 0.99614,-2.91473 0.30355,0.58943 0.61889,1.18181 0.96665,1.77124 0.34777,0.59237 0.70142,1.16707 1.06393,1.72702 z m 5.45221,-15.3605 c 0.68669,0.70731 1.37336,1.49714 2.05121,2.36065 -0.66311,-0.0295 -1.3439,-0.053 -2.03059,-0.053 -0.69257,0 -1.37926,0.0147 -2.0512,0.053 0.66605,-0.86351 1.35273,-1.65334 2.03058,-2.36065 z m -5.46106,4.34703 c -0.3625,0.5688 -0.72205,1.15233 -1.06392,1.7506 -0.33892,0.58944 -0.6572,1.18181 -0.96076,1.77124 -0.39787,-0.99024 -0.73679,-1.97754 -1.01972,-2.93831 0.96962,-0.22987 1.98932,-0.42733 3.0444,-0.58353 z m -6.68117,9.24224 c -2.61412,-1.11402 -4.30283,-2.57581 -4.30283,-3.73403 0,-1.15822 1.69166,-2.62885 4.30283,-3.73402 0.63364,-0.27409 1.32916,-0.51576 2.04532,-0.74563 0.42144,1.44704 0.97551,2.95303 1.66219,4.49439 -0.67784,1.53545 -1.22602,3.03261 -1.63862,4.47375 -0.73089,-0.22986 -1.42641,-0.48038 -2.06889,-0.75446 z m 3.97275,10.54782 c -1.00498,-0.57469 -1.43821,-2.76737 -1.09928,-5.58778 0.0825,-0.69258 0.21513,-1.42347 0.37723,-2.1691 1.44705,0.35366 3.02671,0.62774 4.68595,0.80457 0.99614,1.36453 2.03059,2.60528 3.07093,3.68982 -2.40782,2.23689 -4.66532,3.4629 -6.20079,3.4629 -0.33303,-0.009 -0.61301,-0.0737 -0.83404,-0.20041 z m 17.50897,-5.62315 c 0.34777,2.82043 -0.0825,5.0131 -1.07865,5.59663 -0.22104,0.13262 -0.50986,0.19156 -0.84878,0.19156 -1.52662,0 -3.79297,-1.21717 -6.20079,-3.43932 1.03446,-1.08454 2.06596,-2.31644 3.04735,-3.68392 1.66808,-0.17683 3.24776,-0.45092 4.6948,-0.81341 0.17094,0.74563 0.30356,1.46178 0.38607,2.14846 z m 2.84104,-4.92467 c -0.63364,0.27408 -1.32916,0.51575 -2.04531,0.74562 -0.42144,-1.44704 -0.9755,-2.95303 -1.66219,-4.49438 0.67785,-1.53547 1.22602,-3.03261 1.63861,-4.47377 0.73089,0.22988 1.42346,0.48039 2.07479,0.75153 2.61411,1.11401 4.30283,2.57579 4.30283,3.73402 -0.006,1.16117 -1.69462,2.62886 -4.30873,3.73698 z"
       id="path122"
       style="fill:#ffffff;stroke-width:0.294712" />
  </g>
</svg>
